<svg width="235" height="43" viewBox="0 0 235 43" fill="white" xmlns="http://www.w3.org/2000/svg">
<path d="M3.64 28.436C2.61333 28.436 1.83867 28.2587 1.316 27.904C0.793333 27.568 0.532 26.9987 0.532 26.196C0.532 26.14 0.578667 26.112 0.672 26.112C0.802667 26.112 1.036 26.1587 1.372 26.252C1.708 26.3453 2.352 26.392 3.304 26.392C4.90933 26.392 6.39333 26.2147 7.756 25.86C9.11867 25.4867 10.2947 24.9827 11.284 24.348C12.292 23.7133 13.0667 23.004 13.608 22.22C14.168 21.4173 14.448 20.596 14.448 19.756C14.448 18.9907 14.2333 18.3747 13.804 17.908C13.3747 17.4413 12.8053 17.0867 12.096 16.844C11.4053 16.6013 10.6493 16.4427 9.828 16.368C9.00667 16.2747 8.19467 16.228 7.392 16.228C7.03733 16.228 6.67333 16.2373 6.3 16.256C5.94533 16.256 5.60933 16.256 5.292 16.256C4.86267 17.768 4.44267 19.2893 4.032 20.82C3.62133 22.3507 3.20133 23.8347 2.772 25.272C2.30533 25.272 1.91333 25.1413 1.596 24.88C1.27867 24.6187 1.12 24.3013 1.12 23.928C1.12 23.704 1.16667 23.4427 1.26 23.144C1.35333 22.8453 1.43733 22.5747 1.512 22.332C1.624 21.9587 1.82 21.3333 2.1 20.456C2.38 19.5787 2.716 18.552 3.108 17.376C3.51867 16.2 3.96667 14.968 4.452 13.68C4.93733 12.392 5.432 11.132 5.936 9.9C6.45867 8.668 6.96267 7.576 7.448 6.624C6.664 6.75467 6.00133 6.94133 5.46 7.184C4.93733 7.42667 4.52667 7.65067 4.228 7.856C3.92933 8.04267 3.71467 8.136 3.584 8.136C3.49067 8.136 3.36933 8.09867 3.22 8.024C3.08933 7.93067 2.968 7.828 2.856 7.716C2.744 7.58533 2.688 7.47333 2.688 7.38C3.62133 6.988 4.592 6.63333 5.6 6.316C6.62667 5.99867 7.868 5.84 9.324 5.84C9.94 5.84 10.6213 5.896 11.368 6.008C12.1147 6.10133 12.824 6.30667 13.496 6.624C14.168 6.92267 14.7187 7.37067 15.148 7.968C15.5773 8.54667 15.792 9.32133 15.792 10.292C15.792 11.2067 15.596 11.9907 15.204 12.644C14.812 13.2787 14.2987 13.8107 13.664 14.24C13.0293 14.6507 12.3387 14.9773 11.592 15.22C10.8453 15.4627 10.108 15.64 9.38 15.752C10.7613 15.8267 11.872 16.0227 12.712 16.34C13.5707 16.6573 14.2147 17.04 14.644 17.488C15.092 17.9173 15.3907 18.3747 15.54 18.86C15.6893 19.3453 15.764 19.812 15.764 20.26C15.764 21.3427 15.484 22.3227 14.924 23.2C14.364 24.0773 13.6267 24.8427 12.712 25.496C11.7973 26.1493 10.7987 26.6907 9.716 27.12C8.63333 27.568 7.56 27.8947 6.496 28.1C5.432 28.324 4.48 28.436 3.64 28.436ZM5.46 15.612C6.48667 15.5747 7.504 15.4627 8.512 15.276C9.53867 15.0707 10.472 14.7533 11.312 14.324C12.152 13.8947 12.824 13.3347 13.328 12.644C13.8507 11.9533 14.112 11.0947 14.112 10.068C14.112 9.09733 13.8787 8.35067 13.412 7.828C12.964 7.30533 12.376 6.94133 11.648 6.736C10.9387 6.53067 10.1827 6.428 9.38 6.428C9.28667 6.428 9.19333 6.428 9.1 6.428C9.02533 6.428 8.94133 6.43733 8.848 6.456C8.176 7.76267 7.56 9.2 7 10.768C6.45867 12.336 5.94533 13.9507 5.46 15.612ZM22.1592 26.728C21.5245 26.728 21.0205 26.56 20.6472 26.224C20.2925 25.888 20.1152 25.4493 20.1152 24.908C20.1152 24.348 20.2458 23.76 20.5072 23.144C20.7685 22.528 21.0205 21.9213 21.2632 21.324C21.5245 20.708 21.6552 20.1573 21.6552 19.672C21.6552 19.0747 21.4778 18.636 21.1232 18.356C20.7872 18.0573 20.4418 17.7867 20.0872 17.544C19.6578 18.6453 19.2098 19.6907 18.7432 20.68C18.2765 21.6693 17.8938 22.416 17.5952 22.92L17.3432 22.444C17.6045 21.9587 17.9405 21.2493 18.3512 20.316C18.7805 19.3827 19.2005 18.3187 19.6112 17.124C19.4245 16.9373 19.3312 16.7133 19.3312 16.452C19.3312 15.892 19.4898 15.4347 19.8072 15.08C20.1245 14.7253 20.3578 14.548 20.5072 14.548C20.7125 14.548 20.8245 14.6413 20.8432 14.828C20.8805 14.996 20.8992 15.1267 20.8992 15.22C20.8992 15.3133 20.8432 15.5 20.7312 15.78C20.6378 16.0413 20.5912 16.2 20.5912 16.256C20.5912 16.5173 20.7312 16.76 21.0112 16.984C21.3098 17.1893 21.6458 17.432 22.0192 17.712C22.3925 17.9733 22.7192 18.3 22.9992 18.692C23.2978 19.0653 23.4472 19.5507 23.4472 20.148C23.4472 20.708 23.3258 21.2773 23.0832 21.856C22.8592 22.4347 22.6258 22.9853 22.3832 23.508C22.1592 24.0307 22.0472 24.488 22.0472 24.88C22.0472 25.216 22.1312 25.44 22.2992 25.552C22.4672 25.664 22.6632 25.72 22.8872 25.72C23.3352 25.72 23.7925 25.58 24.2592 25.3C24.7445 25.02 25.2112 24.6653 25.6592 24.236C26.1072 23.8067 26.5085 23.3587 26.8632 22.892C27.2178 22.4067 27.4792 21.9587 27.6472 21.548L28.0112 21.828C27.6565 22.612 27.1712 23.3867 26.5552 24.152C25.9392 24.8987 25.2485 25.5147 24.4832 26C23.7365 26.4853 22.9618 26.728 22.1592 26.728ZM28.6735 27.316C28.0949 27.316 27.6095 27.12 27.2175 26.728C26.8069 26.3547 26.6015 25.776 26.6015 24.992C26.6015 24.32 26.7509 23.6013 27.0495 22.836C27.3482 22.052 27.7589 21.2867 28.2815 20.54C28.8042 19.7747 29.3922 19.084 30.0455 18.468C30.7175 17.8333 31.4175 17.3293 32.1455 16.956C32.8922 16.5827 33.6295 16.396 34.3575 16.396C35.0855 16.396 35.6922 16.592 36.1775 16.984C36.6629 17.3573 36.9055 17.8613 36.9055 18.496C36.9055 18.9627 36.7749 19.28 36.5135 19.448C36.2709 19.616 35.9442 19.7 35.5335 19.7C35.5709 19.5507 35.5989 19.392 35.6175 19.224C35.6549 19.0373 35.6735 18.8693 35.6735 18.72C35.6735 18.2907 35.5709 17.9267 35.3655 17.628C35.1602 17.3107 34.8055 17.152 34.3015 17.152C33.7789 17.152 33.2469 17.3387 32.7055 17.712C32.1642 18.0667 31.6415 18.552 31.1375 19.168C30.6335 19.7653 30.1855 20.4187 29.7935 21.128C29.4015 21.8373 29.0935 22.5373 28.8695 23.228C28.6455 23.9187 28.5335 24.5347 28.5335 25.076C28.5335 25.804 28.7855 26.168 29.2895 26.168C29.7189 26.168 30.1855 25.972 30.6895 25.58C31.1935 25.1693 31.7069 24.656 32.2295 24.04C32.7709 23.4053 33.2842 22.752 33.7695 22.08C34.2549 21.408 34.6842 20.792 35.0575 20.232C35.1322 20.12 35.1789 20.064 35.1975 20.064C35.3095 20.0827 35.4495 20.12 35.6175 20.176C35.8042 20.232 35.9629 20.3067 36.0935 20.4C36.2242 20.4933 36.2895 20.6147 36.2895 20.764C36.2895 20.932 36.2055 21.1653 36.0375 21.464C35.8695 21.744 35.6829 22.0707 35.4775 22.444C35.2722 22.8173 35.0855 23.2 34.9175 23.592C34.7495 23.9653 34.6655 24.32 34.6655 24.656C34.6655 24.936 34.7402 25.216 34.8895 25.496C35.0389 25.7573 35.2815 25.888 35.6175 25.888C36.1215 25.888 36.7842 25.524 37.6055 24.796C38.4269 24.0493 39.2575 22.9387 40.0975 21.464L40.3775 21.744C39.9855 22.752 39.4815 23.6387 38.8655 24.404C38.2495 25.1693 37.5869 25.7667 36.8775 26.196C36.1869 26.6253 35.5055 26.84 34.8335 26.84C34.1429 26.84 33.6295 26.6347 33.2935 26.224C32.9762 25.8133 32.8175 25.3653 32.8175 24.88C32.8175 24.768 32.8269 24.6467 32.8455 24.516C32.8642 24.3667 32.8829 24.2173 32.9015 24.068C32.0989 25.1507 31.3615 25.9627 30.6895 26.504C30.0362 27.0453 29.3642 27.316 28.6735 27.316ZM53.9168 26.868C53.2635 26.868 52.7875 26.6627 52.4888 26.252C52.1902 25.86 52.0408 25.384 52.0408 24.824C52.0408 24.3573 52.1062 23.8907 52.2368 23.424C52.3862 22.9573 52.5262 22.5 52.6568 22.052C52.8062 21.604 52.8808 21.2027 52.8808 20.848C52.8808 20.4747 52.7968 20.2133 52.6288 20.064C52.4608 19.9147 52.2742 19.84 52.0688 19.84C51.6022 19.84 51.0888 20.204 50.5288 20.932C49.9875 21.66 49.2782 22.6867 48.4008 24.012C48.1022 24.46 47.8502 24.9173 47.6448 25.384C47.4395 25.832 47.2435 26.2427 47.0568 26.616C46.9075 26.616 46.7208 26.5973 46.4968 26.56C46.2728 26.5227 46.0675 26.4573 45.8808 26.364C45.7128 26.2893 45.6288 26.1867 45.6288 26.056C45.6288 25.9253 45.7128 25.6173 45.8808 25.132C46.0675 24.628 46.2728 24.0493 46.4968 23.396C46.7395 22.724 46.9448 22.052 47.1128 21.38C47.2995 20.6893 47.3928 20.1013 47.3928 19.616C47.3928 19.2987 47.3368 19.0467 47.2248 18.86C47.1315 18.6547 46.9542 18.552 46.6928 18.552C46.2822 18.552 45.7875 18.804 45.2088 19.308C44.6302 19.7933 44.0328 20.4373 43.4168 21.24C42.8008 22.0427 42.2128 22.9293 41.6528 23.9C41.1115 24.852 40.6728 25.804 40.3368 26.756C40.1688 26.756 39.9635 26.728 39.7208 26.672C39.4782 26.616 39.2728 26.5413 39.1048 26.448C38.9182 26.3547 38.8248 26.2613 38.8248 26.168C38.8248 26.056 38.9275 25.7293 39.1328 25.188C39.3195 24.628 39.5435 23.9653 39.8048 23.2C40.0475 22.416 40.2622 21.6227 40.4488 20.82C40.6542 20.0173 40.7568 19.308 40.7568 18.692C40.8688 18.5613 41.0462 18.4307 41.2888 18.3C41.5315 18.1693 41.7835 18.104 42.0448 18.104C42.3062 18.104 42.4928 18.1693 42.6048 18.3C42.7355 18.4307 42.8008 18.608 42.8008 18.832C42.8008 19.0747 42.7262 19.4947 42.5768 20.092C42.4462 20.6707 42.2782 21.3147 42.0728 22.024C42.4462 21.4267 42.8662 20.82 43.3328 20.204C43.8182 19.5693 44.3222 18.9907 44.8448 18.468C45.3675 17.9453 45.8902 17.5253 46.4128 17.208C46.9542 16.872 47.4768 16.704 47.9808 16.704C48.5595 16.704 48.9515 16.9187 49.1568 17.348C49.3808 17.7587 49.4928 18.2533 49.4928 18.832C49.4928 19.2987 49.4368 19.7933 49.3248 20.316C49.2315 20.82 49.1195 21.296 48.9888 21.744C48.8582 22.1733 48.7368 22.5187 48.6248 22.78C49.0168 22.0707 49.4462 21.3893 49.9128 20.736C50.3982 20.064 50.9208 19.5227 51.4808 19.112C52.0408 18.6827 52.6382 18.468 53.2728 18.468C53.8702 18.468 54.2808 18.6453 54.5048 19C54.7475 19.3547 54.8688 19.7747 54.8688 20.26C54.8688 20.7453 54.7848 21.2773 54.6168 21.856C54.4488 22.4347 54.2715 22.9947 54.0848 23.536C53.9168 24.0773 53.8328 24.544 53.8328 24.936C53.8328 25.1787 53.8888 25.4027 54.0008 25.608C54.1315 25.7947 54.3555 25.888 54.6728 25.888C55.1955 25.888 55.6808 25.6547 56.1288 25.188C56.5955 24.7027 57.0248 24.124 57.4168 23.452C57.8088 22.7613 58.1448 22.0987 58.4248 21.464L58.7608 21.856C58.4622 22.64 58.0795 23.424 57.6128 24.208C57.1462 24.9733 56.5955 25.608 55.9608 26.112C55.3448 26.616 54.6635 26.868 53.9168 26.868ZM60.7904 28.044C59.8197 28.044 59.0917 27.7267 58.6064 27.092C58.1397 26.4573 57.9064 25.5987 57.9064 24.516C57.9064 23.5827 58.0651 22.4813 58.3824 21.212C58.6997 19.9427 59.1197 18.6173 59.6424 17.236C60.1651 15.836 60.7437 14.4733 61.3784 13.148C62.0317 11.8227 62.6851 10.628 63.3384 9.564C63.9917 8.48133 64.6077 7.62267 65.1864 6.988C65.7651 6.33467 66.2411 6.008 66.6144 6.008C66.9317 6.008 67.1557 6.204 67.2864 6.596C67.4357 6.988 67.5104 7.38 67.5104 7.772C67.5104 8.29467 67.3984 8.92933 67.1744 9.676C66.9504 10.4227 66.6331 11.2253 66.2224 12.084C65.8117 12.924 65.3357 13.7547 64.7944 14.576C64.2531 15.3973 63.6651 16.1533 63.0304 16.844C62.4144 17.516 61.7797 18.048 61.1264 18.44C61.0144 18.6453 60.8464 19.0747 60.6224 19.728C60.4171 20.3627 60.2211 21.1 60.0344 21.94C59.8664 22.7613 59.7824 23.564 59.7824 24.348C59.7824 25.1133 59.8944 25.7387 60.1184 26.224C60.3611 26.728 60.7624 26.98 61.3224 26.98C61.8637 26.98 62.4237 26.756 63.0024 26.308C63.5811 25.8787 64.0477 25.3187 64.4024 24.628C63.7117 24.2733 63.1984 23.76 62.8624 23.088C62.5264 22.3973 62.3584 21.7067 62.3584 21.016C62.3584 20.12 62.5917 19.4013 63.0584 18.86C63.5251 18.3187 64.0757 18.048 64.7104 18.048C65.2517 18.048 65.6811 18.272 65.9984 18.72C66.3157 19.1493 66.4744 19.784 66.4744 20.624C66.4744 21.24 66.3904 21.8747 66.2224 22.528C66.0544 23.1813 65.8117 23.816 65.4944 24.432C65.6064 24.4507 65.7184 24.4693 65.8304 24.488C65.9611 24.5067 66.0917 24.516 66.2224 24.516C66.8944 24.516 67.4544 24.3573 67.9024 24.04C68.3504 23.704 68.7237 23.3027 69.0224 22.836C69.3397 22.3507 69.6011 21.8933 69.8064 21.464L70.1424 21.828C69.6197 23.116 68.9944 23.9747 68.2664 24.404C67.5571 24.8147 66.8477 25.02 66.1384 25.02C65.9891 25.02 65.8397 25.0107 65.6904 24.992C65.5411 24.9733 65.3917 24.9547 65.2424 24.936C64.7384 25.7947 64.1131 26.5227 63.3664 27.12C62.6384 27.736 61.7797 28.044 60.7904 28.044ZM64.6824 24.068C64.8877 23.6387 65.0464 23.1907 65.1584 22.724C65.2704 22.2387 65.3264 21.744 65.3264 21.24C65.3264 20.5867 65.2331 20.0733 65.0464 19.7C64.8784 19.3267 64.6637 19.14 64.4024 19.14C64.1224 19.14 63.8704 19.336 63.6464 19.728C63.4411 20.1013 63.3384 20.5773 63.3384 21.156C63.3384 21.66 63.4411 22.192 63.6464 22.752C63.8517 23.312 64.1971 23.7507 64.6824 24.068ZM61.4344 17.348C61.9571 16.9373 62.4611 16.4147 62.9464 15.78C63.4504 15.1453 63.9171 14.4733 64.3464 13.764C64.7757 13.036 65.1584 12.3267 65.4944 11.636C65.8304 10.9453 66.0917 10.32 66.2784 9.76C66.4651 9.2 66.5584 8.78 66.5584 8.5C66.5584 8.40667 66.5491 8.35067 66.5304 8.332C66.5117 8.29467 66.4837 8.276 66.4464 8.276C66.2971 8.276 66.0077 8.54667 65.5784 9.088C65.1677 9.61067 64.7011 10.32 64.1784 11.216C63.6744 12.0933 63.1704 13.0733 62.6664 14.156C62.1624 15.22 61.7517 16.284 61.4344 17.348ZM71.8099 26.84C71.0073 26.84 70.4286 26.56 70.0739 26C69.7379 25.4587 69.5699 24.7773 69.5699 23.956C69.5699 23.06 69.7379 21.996 70.0739 20.764C70.4099 19.532 70.8486 18.2347 71.3899 16.872C71.9499 15.5093 72.5566 14.184 73.2099 12.896C73.8633 11.5893 74.5166 10.404 75.1699 9.34C75.8233 8.276 76.4206 7.42667 76.9619 6.792C77.5219 6.15733 77.9606 5.84 78.2779 5.84C78.4833 5.84 78.6513 5.96133 78.7819 6.204C78.9126 6.428 79.0153 6.708 79.0899 7.044C79.1646 7.36133 79.2019 7.65067 79.2019 7.912C79.2019 8.416 79.0713 9.07867 78.8099 9.9C78.5673 10.7027 78.2126 11.608 77.7459 12.616C77.2979 13.6053 76.7566 14.6133 76.1219 15.64C75.5059 16.648 74.8246 17.6187 74.0779 18.552C73.3499 19.4853 72.5753 20.288 71.7539 20.96C71.6419 21.464 71.5486 21.9587 71.4739 22.444C71.4179 22.9107 71.3899 23.3587 71.3899 23.788C71.3899 25.2253 71.8006 25.944 72.6219 25.944C73.0699 25.944 73.5179 25.7573 73.9659 25.384C74.4326 24.992 74.8713 24.4973 75.2819 23.9C75.7113 23.3027 76.0846 22.668 76.4019 21.996C76.5886 21.0253 76.8686 19.9893 77.2419 18.888C77.6153 17.768 78.0446 16.648 78.5299 15.528C79.0153 14.408 79.5286 13.3347 80.0699 12.308C80.6113 11.2813 81.1433 10.3667 81.6659 9.564C82.1886 8.76133 82.6739 8.12667 83.1219 7.66C83.5699 7.19333 83.9339 6.96 84.2139 6.96C84.4193 6.96 84.5873 7.08133 84.7179 7.324C84.8486 7.548 84.9513 7.828 85.0259 8.164C85.1006 8.48133 85.1379 8.77067 85.1379 9.032C85.1379 9.648 84.9793 10.46 84.6619 11.468C84.3446 12.4573 83.8873 13.5213 83.2899 14.66C82.7113 15.7987 82.0019 16.928 81.1619 18.048C80.3406 19.1493 79.4166 20.12 78.3899 20.96C78.2779 21.464 78.1846 21.9587 78.1099 22.444C78.0539 22.9107 78.0259 23.3587 78.0259 23.788C78.0259 25.2253 78.4366 25.944 79.2579 25.944C79.7619 25.944 80.2566 25.72 80.7419 25.272C81.2459 24.824 81.7126 24.264 82.1419 23.592C82.5899 22.9013 82.9726 22.192 83.2899 21.464L83.7099 21.688C82.9633 23.2747 82.1513 24.5347 81.2739 25.468C80.3966 26.3827 79.4539 26.84 78.4459 26.84C77.5499 26.84 76.9339 26.504 76.5979 25.832C76.2619 25.16 76.1406 24.32 76.2339 23.312C75.5806 24.4133 74.8806 25.2813 74.1339 25.916C73.4059 26.532 72.6313 26.84 71.8099 26.84ZM72.0059 20.008C72.6593 19.3547 73.2939 18.608 73.9099 17.768C74.5259 16.9093 75.0953 16.0227 75.6179 15.108C76.1593 14.1933 76.6353 13.3067 77.0459 12.448C77.4566 11.5893 77.7739 10.824 77.9979 10.152C78.2219 9.46133 78.3339 8.92933 78.3339 8.556C78.3339 8.36933 78.3059 8.248 78.2499 8.192C78.2126 8.136 78.1753 8.108 78.1379 8.108C77.9886 8.108 77.7273 8.35067 77.3539 8.836C76.9993 9.30267 76.5793 9.93733 76.0939 10.74C75.6086 11.5427 75.1139 12.4573 74.6099 13.484C74.1059 14.5107 73.6206 15.584 73.1539 16.704C72.7059 17.824 72.3233 18.9253 72.0059 20.008ZM78.6419 20.008C79.4633 19.1867 80.2099 18.2813 80.8819 17.292C81.5726 16.3027 82.1699 15.3133 82.6739 14.324C83.1779 13.3347 83.5699 12.4293 83.8499 11.608C84.1299 10.7867 84.2699 10.1427 84.2699 9.676C84.2699 9.48933 84.2419 9.368 84.1859 9.312C84.1486 9.256 84.1113 9.228 84.0739 9.228C83.8873 9.228 83.5699 9.536 83.1219 10.152C82.6926 10.7493 82.1979 11.5613 81.6379 12.588C81.0966 13.6147 80.5553 14.772 80.0139 16.06C79.4913 17.348 79.0339 18.664 78.6419 20.008ZM95.3203 27.372C94.1816 27.372 93.3323 27.0267 92.7723 26.336C92.231 25.6453 91.9603 24.8147 91.9603 23.844C91.1576 24.908 90.2336 25.7387 89.1883 26.336C88.143 26.9333 87.0883 27.232 86.0243 27.232C84.8856 27.232 84.027 26.9147 83.4483 26.28C82.8883 25.664 82.6083 24.8987 82.6083 23.984C82.6083 23.144 82.8136 22.2573 83.2243 21.324C83.6536 20.3907 84.2136 19.5133 84.9043 18.692C85.6136 17.8707 86.3883 17.208 87.2283 16.704C88.0683 16.1813 88.899 15.92 89.7203 15.92C90.1496 15.92 90.5416 16.032 90.8963 16.256C91.2696 16.48 91.4563 16.9373 91.4563 17.628C91.4563 18.3373 91.2416 19.0093 90.8123 19.644C90.4016 20.26 89.851 20.8107 89.1603 21.296C88.4883 21.7813 87.7416 22.1827 86.9203 22.5C86.1176 22.7987 85.315 22.9853 84.5123 23.06C84.475 23.2467 84.447 23.424 84.4283 23.592C84.4096 23.76 84.4003 23.9187 84.4003 24.068C84.4003 24.4413 84.4656 24.8147 84.5963 25.188C84.727 25.5427 84.951 25.832 85.2683 26.056C85.5856 26.2987 86.0336 26.42 86.6123 26.42C87.6016 26.42 88.5816 26.0747 89.5523 25.384C90.523 24.6747 91.3723 23.8067 92.1003 22.78C92.2683 22.0147 92.567 21.2493 92.9963 20.484C93.4256 19.7187 93.939 19.028 94.5363 18.412C95.1523 17.7773 95.815 17.2733 96.5243 16.9C97.2336 16.508 97.9523 16.312 98.6803 16.312C99.1096 16.312 99.5016 16.424 99.8563 16.648C100.23 16.872 100.416 17.3293 100.416 18.02C100.416 18.972 100.09 19.812 99.4363 20.54C98.8016 21.2493 97.9803 21.8187 96.9723 22.248C95.9643 22.6773 94.9283 22.948 93.8643 23.06C93.827 23.2467 93.799 23.424 93.7803 23.592C93.7616 23.76 93.7523 23.9187 93.7523 24.068C93.7523 24.4413 93.8083 24.824 93.9203 25.216C94.051 25.608 94.2656 25.9253 94.5643 26.168C94.8816 26.4293 95.3296 26.56 95.9083 26.56C96.711 26.56 97.5136 26.3267 98.3163 25.86C99.119 25.3747 99.8656 24.7493 100.556 23.984C101.247 23.2 101.826 22.36 102.292 21.464L102.628 21.716C102.124 22.836 101.471 23.8253 100.668 24.684C99.8843 25.524 99.0256 26.1773 98.0923 26.644C97.1776 27.1293 96.2536 27.372 95.3203 27.372ZM84.6523 22.528C85.1563 22.36 85.7256 22.1173 86.3603 21.8C86.995 21.464 87.6016 21.072 88.1803 20.624C88.7776 20.176 89.263 19.6813 89.6363 19.14C90.0283 18.5987 90.2243 18.0293 90.2243 17.432C90.2243 17.2267 90.187 17.068 90.1123 16.956C90.0376 16.844 89.879 16.788 89.6363 16.788C89.1883 16.788 88.7123 16.9653 88.2083 17.32C87.7043 17.656 87.219 18.104 86.7523 18.664C86.2856 19.224 85.8656 19.84 85.4923 20.512C85.119 21.184 84.839 21.856 84.6523 22.528ZM94.0043 22.528C94.5083 22.36 95.059 22.136 95.6563 21.856C96.2536 21.576 96.823 21.2493 97.3643 20.876C97.9056 20.484 98.3536 20.0453 98.7083 19.56C99.063 19.056 99.2403 18.5053 99.2403 17.908C99.2403 17.7027 99.1936 17.5347 99.1003 17.404C99.007 17.2547 98.839 17.18 98.5963 17.18C97.999 17.18 97.3923 17.4413 96.7763 17.964C96.179 18.4867 95.6283 19.1587 95.1243 19.98C94.639 20.7827 94.2656 21.632 94.0043 22.528ZM114.913 28.436C113.793 28.436 112.822 28.2027 112.001 27.736C111.18 27.2693 110.545 26.6533 110.097 25.888C109.668 25.104 109.453 24.2547 109.453 23.34C109.453 22.4813 109.64 21.6413 110.013 20.82C110.386 19.9987 110.9 19.252 111.553 18.58C112.225 17.8893 113 17.3293 113.877 16.9C114.754 16.452 115.697 16.1813 116.705 16.088C115.977 15.4907 115.436 14.8 115.081 14.016C114.745 13.232 114.577 12.448 114.577 11.664C114.577 10.6747 114.829 9.74133 115.333 8.864C115.837 7.968 116.518 7.24933 117.377 6.708C118.254 6.148 119.253 5.868 120.373 5.868C121.381 5.868 122.137 6.12 122.641 6.624C123.164 7.128 123.425 7.86533 123.425 8.836C123.425 9.52667 123.313 10.208 123.089 10.88C122.865 11.5333 122.585 12.0747 122.249 12.504C121.932 12.9147 121.614 13.12 121.297 13.12C121.092 13.12 120.896 13.036 120.709 12.868C120.522 12.6813 120.373 12.4667 120.261 12.224C120.914 11.6453 121.456 11.048 121.885 10.432C122.333 9.79733 122.557 9.116 122.557 8.388C122.557 7.80933 122.398 7.34267 122.081 6.988C121.782 6.61467 121.306 6.428 120.653 6.428C119.776 6.428 119.038 6.69867 118.441 7.24C117.844 7.76267 117.386 8.46267 117.069 9.34C116.77 10.1987 116.621 11.132 116.621 12.14C116.621 12.588 116.658 13.064 116.733 13.568C116.826 14.072 116.985 14.5667 117.209 15.052C117.452 15.5373 117.797 15.976 118.245 16.368C116.994 16.5733 115.902 17.0493 114.969 17.796C114.054 18.5427 113.336 19.42 112.813 20.428C112.309 21.436 112.057 22.4347 112.057 23.424C112.057 24.04 112.169 24.6653 112.393 25.3C112.636 25.916 113.018 26.4293 113.541 26.84C114.064 27.2693 114.764 27.484 115.641 27.484C116.63 27.484 117.582 27.232 118.497 26.728C119.43 26.224 120.27 25.552 121.017 24.712C121.782 23.872 122.408 22.9293 122.893 21.884C123.378 20.82 123.686 19.728 123.817 18.608C123.425 18.6267 123.061 18.6547 122.725 18.692C122.408 18.7293 122.053 18.7853 121.661 18.86C121.269 18.916 120.765 19.0093 120.149 19.14C120.186 18.356 120.485 17.8333 121.045 17.572C121.605 17.3107 122.277 17.18 123.061 17.18C123.621 17.18 124.153 17.2173 124.657 17.292C125.161 17.3667 125.637 17.4413 126.085 17.516C126.552 17.5907 126.972 17.6373 127.345 17.656C127.14 18.0853 126.934 18.3467 126.729 18.44C126.542 18.5147 126.356 18.552 126.169 18.552C125.852 18.552 125.553 18.5613 125.273 18.58C125.012 18.58 124.769 18.58 124.545 18.58C124.414 19.868 124.06 21.1 123.481 22.276C122.921 23.452 122.193 24.5067 121.297 25.44C120.42 26.3547 119.43 27.0827 118.329 27.624C117.246 28.1653 116.108 28.436 114.913 28.436ZM138.264 28.436C137.238 28.436 136.463 28.2587 135.94 27.904C135.418 27.568 135.156 26.9987 135.156 26.196C135.156 26.14 135.203 26.112 135.296 26.112C135.427 26.112 135.66 26.1587 135.996 26.252C136.332 26.3453 136.976 26.392 137.928 26.392C139.534 26.392 141.018 26.2147 142.38 25.86C143.743 25.4867 144.919 24.9827 145.908 24.348C146.916 23.7133 147.691 23.004 148.232 22.22C148.792 21.4173 149.072 20.596 149.072 19.756C149.072 18.9907 148.858 18.3747 148.428 17.908C147.999 17.4413 147.43 17.0867 146.72 16.844C146.03 16.6013 145.274 16.4427 144.452 16.368C143.631 16.2747 142.819 16.228 142.016 16.228C141.662 16.228 141.298 16.2373 140.924 16.256C140.57 16.256 140.234 16.256 139.916 16.256C139.487 17.768 139.067 19.2893 138.656 20.82C138.246 22.3507 137.826 23.8347 137.396 25.272C136.93 25.272 136.538 25.1413 136.22 24.88C135.903 24.6187 135.744 24.3013 135.744 23.928C135.744 23.704 135.791 23.4427 135.884 23.144C135.978 22.8453 136.062 22.5747 136.136 22.332C136.248 21.9587 136.444 21.3333 136.724 20.456C137.004 19.5787 137.34 18.552 137.732 17.376C138.143 16.2 138.591 14.968 139.076 13.68C139.562 12.392 140.056 11.132 140.56 9.9C141.083 8.668 141.587 7.576 142.072 6.624C141.288 6.75467 140.626 6.94133 140.084 7.184C139.562 7.42667 139.151 7.65067 138.852 7.856C138.554 8.04267 138.339 8.136 138.208 8.136C138.115 8.136 137.994 8.09867 137.844 8.024C137.714 7.93067 137.592 7.828 137.48 7.716C137.368 7.58533 137.312 7.47333 137.312 7.38C138.246 6.988 139.216 6.63333 140.224 6.316C141.251 5.99867 142.492 5.84 143.948 5.84C144.564 5.84 145.246 5.896 145.992 6.008C146.739 6.10133 147.448 6.30667 148.12 6.624C148.792 6.92267 149.343 7.37067 149.772 7.968C150.202 8.54667 150.416 9.32133 150.416 10.292C150.416 11.2067 150.22 11.9907 149.828 12.644C149.436 13.2787 148.923 13.8107 148.288 14.24C147.654 14.6507 146.963 14.9773 146.216 15.22C145.47 15.4627 144.732 15.64 144.004 15.752C145.386 15.8267 146.496 16.0227 147.336 16.34C148.195 16.6573 148.839 17.04 149.268 17.488C149.716 17.9173 150.015 18.3747 150.164 18.86C150.314 19.3453 150.388 19.812 150.388 20.26C150.388 21.3427 150.108 22.3227 149.548 23.2C148.988 24.0773 148.251 24.8427 147.336 25.496C146.422 26.1493 145.423 26.6907 144.34 27.12C143.258 27.568 142.184 27.8947 141.12 28.1C140.056 28.324 139.104 28.436 138.264 28.436ZM140.084 15.612C141.111 15.5747 142.128 15.4627 143.136 15.276C144.163 15.0707 145.096 14.7533 145.936 14.324C146.776 13.8947 147.448 13.3347 147.952 12.644C148.475 11.9533 148.736 11.0947 148.736 10.068C148.736 9.09733 148.503 8.35067 148.036 7.828C147.588 7.30533 147 6.94133 146.272 6.736C145.563 6.53067 144.807 6.428 144.004 6.428C143.911 6.428 143.818 6.428 143.724 6.428C143.65 6.428 143.566 6.43733 143.472 6.456C142.8 7.76267 142.184 9.2 141.624 10.768C141.083 12.336 140.57 13.9507 140.084 15.612ZM154.039 26.84C153.405 26.84 152.891 26.56 152.499 26C152.126 25.4213 151.939 24.7587 151.939 24.012C151.939 23.4707 152.023 22.8453 152.191 22.136C152.378 21.4267 152.602 20.7267 152.863 20.036C153.125 19.3453 153.395 18.776 153.675 18.328C153.955 17.88 154.198 17.656 154.403 17.656C154.497 17.656 154.655 17.712 154.879 17.824C155.103 17.9173 155.29 18.048 155.439 18.216C155.234 18.5333 154.982 19.0187 154.683 19.672C154.385 20.3253 154.123 21.0253 153.899 21.772C153.675 22.5187 153.563 23.2093 153.563 23.844C153.563 23.9933 153.582 24.2267 153.619 24.544C153.657 24.8427 153.75 25.1133 153.899 25.356C154.049 25.5987 154.273 25.72 154.571 25.72C154.926 25.72 155.29 25.5427 155.663 25.188C156.037 24.8147 156.41 24.3387 156.783 23.76C157.175 23.1813 157.549 22.556 157.903 21.884C158.258 21.212 158.585 20.568 158.883 19.952C159.201 19.336 159.462 18.8227 159.667 18.412C159.779 18.4307 159.938 18.468 160.143 18.524C160.367 18.58 160.563 18.6547 160.731 18.748C160.918 18.8413 161.011 18.972 161.011 19.14C161.011 19.2147 160.918 19.4667 160.731 19.896C160.545 20.3067 160.321 20.82 160.059 21.436C159.817 22.0333 159.602 22.64 159.415 23.256C159.229 23.872 159.135 24.4133 159.135 24.88C159.135 25.216 159.201 25.4867 159.331 25.692C159.481 25.8973 159.723 26 160.059 26C160.451 26 160.927 25.8227 161.487 25.468C162.047 25.1133 162.617 24.6 163.195 23.928C163.774 23.2373 164.287 22.416 164.735 21.464L165.099 21.716C164.707 22.724 164.194 23.62 163.559 24.404C162.925 25.1693 162.253 25.7667 161.543 26.196C160.834 26.6253 160.143 26.84 159.471 26.84C158.986 26.84 158.594 26.7467 158.295 26.56C158.015 26.3733 157.81 26.1213 157.679 25.804C157.567 25.4867 157.511 25.1413 157.511 24.768C157.511 24.544 157.53 24.32 157.567 24.096C157.605 23.8533 157.651 23.6107 157.707 23.368C157.371 23.984 157.007 24.5627 156.615 25.104C156.223 25.6267 155.813 26.0467 155.383 26.364C154.954 26.6813 154.506 26.84 154.039 26.84ZM169.341 26.728C168.706 26.728 168.202 26.56 167.829 26.224C167.474 25.888 167.297 25.4493 167.297 24.908C167.297 24.348 167.427 23.76 167.689 23.144C167.95 22.528 168.202 21.9213 168.445 21.324C168.706 20.708 168.837 20.1573 168.837 19.672C168.837 19.0747 168.659 18.636 168.305 18.356C167.969 18.0573 167.623 17.7867 167.269 17.544C166.839 18.6453 166.391 19.6907 165.925 20.68C165.458 21.6693 165.075 22.416 164.777 22.92L164.525 22.444C164.786 21.9587 165.122 21.2493 165.533 20.316C165.962 19.3827 166.382 18.3187 166.793 17.124C166.606 16.9373 166.513 16.7133 166.513 16.452C166.513 15.892 166.671 15.4347 166.989 15.08C167.306 14.7253 167.539 14.548 167.689 14.548C167.894 14.548 168.006 14.6413 168.025 14.828C168.062 14.996 168.081 15.1267 168.081 15.22C168.081 15.3133 168.025 15.5 167.913 15.78C167.819 16.0413 167.773 16.2 167.773 16.256C167.773 16.5173 167.913 16.76 168.193 16.984C168.491 17.1893 168.827 17.432 169.201 17.712C169.574 17.9733 169.901 18.3 170.181 18.692C170.479 19.0653 170.629 19.5507 170.629 20.148C170.629 20.708 170.507 21.2773 170.265 21.856C170.041 22.4347 169.807 22.9853 169.565 23.508C169.341 24.0307 169.229 24.488 169.229 24.88C169.229 25.216 169.313 25.44 169.481 25.552C169.649 25.664 169.845 25.72 170.069 25.72C170.517 25.72 170.974 25.58 171.441 25.3C171.926 25.02 172.393 24.6653 172.841 24.236C173.289 23.8067 173.69 23.3587 174.045 22.892C174.399 22.4067 174.661 21.9587 174.829 21.548L175.193 21.828C174.838 22.612 174.353 23.3867 173.737 24.152C173.121 24.8987 172.43 25.5147 171.665 26C170.918 26.4853 170.143 26.728 169.341 26.728ZM176.443 26.896C175.64 26.896 175.071 26.644 174.735 26.14C174.399 25.6547 174.231 25.0573 174.231 24.348C174.231 23.7693 174.324 23.172 174.511 22.556C174.698 21.94 174.94 21.3613 175.239 20.82C175.556 20.2787 175.902 19.84 176.275 19.504C176.667 19.168 177.059 19 177.451 19C177.544 19 177.638 19.0187 177.731 19.056C177.843 19.0747 177.946 19.1027 178.039 19.14C177.871 19.2893 177.666 19.5693 177.423 19.98C177.199 20.372 176.984 20.8293 176.779 21.352C176.574 21.856 176.396 22.36 176.247 22.864C176.116 23.368 176.051 23.7973 176.051 24.152C176.051 24.712 176.144 25.1227 176.331 25.384C176.518 25.6267 176.76 25.748 177.059 25.748C177.451 25.748 177.918 25.5427 178.459 25.132C179 24.7027 179.532 24.1613 180.055 23.508C179.532 23.0787 179.122 22.5187 178.823 21.828C178.543 21.1187 178.403 20.4 178.403 19.672C178.403 19.056 178.506 18.4773 178.711 17.936C178.935 17.3947 179.252 16.9653 179.663 16.648C180.074 16.312 180.568 16.144 181.147 16.144C181.912 16.144 182.426 16.3493 182.687 16.76C182.948 17.1707 183.079 17.684 183.079 18.3C183.079 19.028 182.902 19.84 182.547 20.736C182.192 21.6133 181.744 22.4627 181.203 23.284C181.539 23.4707 181.894 23.564 182.267 23.564C182.566 23.564 182.902 23.508 183.275 23.396C183.648 23.2653 184.012 23.0507 184.367 22.752C184.74 22.4533 185.039 22.052 185.263 21.548L185.599 21.828C185.226 22.7053 184.694 23.3307 184.003 23.704C183.331 24.0587 182.687 24.236 182.071 24.236C181.828 24.236 181.595 24.2173 181.371 24.18C181.147 24.124 180.932 24.0493 180.727 23.956C180.092 24.796 179.392 25.496 178.627 26.056C177.88 26.616 177.152 26.896 176.443 26.896ZM180.559 22.78C181.026 22.0893 181.408 21.3707 181.707 20.624C182.024 19.8587 182.183 19.14 182.183 18.468C182.183 17.9267 182.099 17.5347 181.931 17.292C181.782 17.0307 181.586 16.9 181.343 16.9C180.97 16.9 180.587 17.1707 180.195 17.712C179.803 18.2533 179.607 18.9347 179.607 19.756C179.607 20.2973 179.682 20.848 179.831 21.408C179.999 21.9493 180.242 22.4067 180.559 22.78ZM186.082 33.84C185.671 33.84 185.298 33.7093 184.962 33.448C184.626 33.2053 184.458 32.7947 184.458 32.216C184.458 31.656 184.635 31.1333 184.99 30.648C185.326 30.1813 185.764 29.7427 186.306 29.332C186.847 28.94 187.435 28.576 188.07 28.24C188.723 27.904 189.339 27.5867 189.918 27.288C190.179 26.6347 190.422 25.9347 190.646 25.188C190.888 24.4227 191.122 23.5827 191.346 22.668C190.636 23.6947 189.89 24.5533 189.106 25.244C188.34 25.916 187.566 26.252 186.782 26.252C186.11 26.252 185.587 26 185.214 25.496C184.859 24.992 184.682 24.3387 184.682 23.536C184.682 22.5653 184.915 21.6413 185.382 20.764C185.867 19.8867 186.492 19.112 187.258 18.44C188.023 17.768 188.835 17.2453 189.694 16.872C190.552 16.48 191.355 16.284 192.102 16.284C192.643 16.284 193.026 16.3773 193.25 16.564C193.492 16.732 193.614 16.9373 193.614 17.18C193.614 17.348 193.567 17.4787 193.474 17.572C193.38 17.6653 193.315 17.7213 193.278 17.74C193.184 17.5907 193.044 17.488 192.858 17.432C192.671 17.3573 192.438 17.32 192.158 17.32C191.43 17.32 190.72 17.5347 190.03 17.964C189.358 18.3933 188.76 18.944 188.238 19.616C187.715 20.288 187.295 20.988 186.978 21.716C186.679 22.4253 186.53 23.0787 186.53 23.676C186.53 24.124 186.614 24.4693 186.782 24.712C186.968 24.936 187.211 25.048 187.51 25.048C188.051 25.048 188.695 24.6933 189.442 23.984C190.207 23.256 190.944 22.3787 191.654 21.352C191.71 21.0907 191.756 20.8573 191.794 20.652C191.85 20.4467 191.915 20.1853 191.99 19.868C192.046 19.6067 192.176 19.308 192.382 18.972C192.606 18.6173 192.951 18.44 193.418 18.44C193.511 18.44 193.604 18.4493 193.698 18.468C193.791 18.468 193.894 18.4867 194.006 18.524C194.006 18.8227 193.912 19.3733 193.726 20.176C193.558 20.96 193.306 21.884 192.97 22.948C192.652 23.9933 192.279 25.076 191.85 26.196C192.466 25.8973 193.063 25.5147 193.642 25.048C194.239 24.5813 194.78 24.0493 195.266 23.452C195.751 22.836 196.134 22.1733 196.414 21.464L196.778 21.744C196.498 22.584 196.05 23.3493 195.434 24.04C194.818 24.7307 194.155 25.328 193.446 25.832C192.755 26.336 192.12 26.728 191.542 27.008C191.019 28.2587 190.468 29.3973 189.89 30.424C189.311 31.4693 188.704 32.3 188.07 32.916C187.454 33.532 186.791 33.84 186.082 33.84ZM185.998 32.944C186.371 32.944 186.875 32.5707 187.51 31.824C188.163 31.096 188.863 29.836 189.61 28.044C188.863 28.4173 188.163 28.8 187.51 29.192C186.875 29.6027 186.352 30.032 185.942 30.48C185.531 30.928 185.326 31.4227 185.326 31.964C185.326 32.2627 185.391 32.496 185.522 32.664C185.652 32.8507 185.811 32.944 185.998 32.944ZM198.112 26.896C197.31 26.896 196.74 26.644 196.404 26.14C196.068 25.6547 195.9 25.0573 195.9 24.348C195.9 23.7693 195.994 23.172 196.18 22.556C196.367 21.94 196.61 21.3613 196.908 20.82C197.226 20.2787 197.571 19.84 197.944 19.504C198.336 19.168 198.728 19 199.12 19C199.214 19 199.307 19.0187 199.4 19.056C199.512 19.0747 199.615 19.1027 199.708 19.14C199.54 19.2893 199.335 19.5693 199.092 19.98C198.868 20.372 198.654 20.8293 198.448 21.352C198.243 21.856 198.066 22.36 197.916 22.864C197.786 23.368 197.72 23.7973 197.72 24.152C197.72 24.712 197.814 25.1227 198 25.384C198.187 25.6267 198.43 25.748 198.728 25.748C199.12 25.748 199.587 25.5427 200.128 25.132C200.67 24.7027 201.202 24.1613 201.724 23.508C201.202 23.0787 200.791 22.5187 200.492 21.828C200.212 21.1187 200.072 20.4 200.072 19.672C200.072 19.056 200.175 18.4773 200.38 17.936C200.604 17.3947 200.922 16.9653 201.332 16.648C201.743 16.312 202.238 16.144 202.816 16.144C203.582 16.144 204.095 16.3493 204.356 16.76C204.618 17.1707 204.748 17.684 204.748 18.3C204.748 19.028 204.571 19.84 204.216 20.736C203.862 21.6133 203.414 22.4627 202.872 23.284C203.208 23.4707 203.563 23.564 203.936 23.564C204.235 23.564 204.571 23.508 204.944 23.396C205.318 23.2653 205.682 23.0507 206.036 22.752C206.41 22.4533 206.708 22.052 206.932 21.548L207.268 21.828C206.895 22.7053 206.363 23.3307 205.672 23.704C205 24.0587 204.356 24.236 203.74 24.236C203.498 24.236 203.264 24.2173 203.04 24.18C202.816 24.124 202.602 24.0493 202.396 23.956C201.762 24.796 201.062 25.496 200.296 26.056C199.55 26.616 198.822 26.896 198.112 26.896ZM202.228 22.78C202.695 22.0893 203.078 21.3707 203.376 20.624C203.694 19.8587 203.852 19.14 203.852 18.468C203.852 17.9267 203.768 17.5347 203.6 17.292C203.451 17.0307 203.255 16.9 203.012 16.9C202.639 16.9 202.256 17.1707 201.864 17.712C201.472 18.2533 201.276 18.9347 201.276 19.756C201.276 20.2973 201.351 20.848 201.5 21.408C201.668 21.9493 201.911 22.4067 202.228 22.78ZM206.547 33.84C205.968 33.84 205.52 33.728 205.203 33.504C204.867 33.2987 204.699 32.9347 204.699 32.412C204.699 31.8147 204.904 31.2547 205.315 30.732C205.707 30.228 206.239 29.7427 206.911 29.276C207.583 28.8093 208.32 28.3333 209.123 27.848C209.944 27.3813 210.756 26.8773 211.559 26.336C211.559 25.664 211.419 25.048 211.139 24.488C210.859 23.928 210.355 23.3587 209.627 22.78C210.28 22.5933 210.831 22.2667 211.279 21.8C211.746 21.3333 212.091 20.82 212.315 20.26C212.558 19.6813 212.679 19.1493 212.679 18.664C212.679 18.2347 212.586 17.88 212.399 17.6C212.231 17.32 211.96 17.18 211.587 17.18C210.971 17.18 210.42 17.4133 209.935 17.88C209.45 18.3467 209.002 18.9627 208.591 19.728C208.18 20.4933 207.76 21.3333 207.331 22.248L206.995 21.968C207.406 20.848 207.826 19.8493 208.255 18.972C208.703 18.0947 209.226 17.404 209.823 16.9C210.42 16.3773 211.139 16.116 211.979 16.116C212.614 16.116 213.155 16.3213 213.603 16.732C214.07 17.1427 214.303 17.7027 214.303 18.412C214.303 19.084 214.144 19.7093 213.827 20.288C213.51 20.8667 213.099 21.38 212.595 21.828C212.091 22.2573 211.559 22.612 210.999 22.892C211.484 23.2653 211.886 23.6667 212.203 24.096C212.539 24.5067 212.791 24.9453 212.959 25.412C213.668 24.8707 214.294 24.2827 214.835 23.648C215.395 22.9947 215.806 22.2667 216.067 21.464L216.375 21.8C216.114 22.64 215.694 23.4053 215.115 24.096C214.536 24.768 213.874 25.384 213.127 25.944C213.164 26.0747 213.192 26.224 213.211 26.392C213.23 26.56 213.239 26.7187 213.239 26.868C213.239 27.708 213.052 28.5387 212.679 29.36C212.306 30.2 211.802 30.956 211.167 31.628C210.532 32.3 209.814 32.832 209.011 33.224C208.227 33.6347 207.406 33.84 206.547 33.84ZM206.351 33.028C206.687 33.028 207.126 32.888 207.667 32.608C208.208 32.3467 208.759 31.9547 209.319 31.432C209.879 30.928 210.364 30.3027 210.775 29.556C211.186 28.8093 211.438 27.9507 211.531 26.98C210.784 27.4467 210.047 27.8853 209.319 28.296C208.61 28.7253 207.966 29.136 207.387 29.528C206.808 29.9387 206.351 30.3493 206.015 30.76C205.66 31.1893 205.483 31.6373 205.483 32.104C205.483 32.4213 205.567 32.6547 205.735 32.804C205.903 32.9533 206.108 33.028 206.351 33.028ZM215.714 33.84C215.135 33.84 214.687 33.728 214.37 33.504C214.034 33.2987 213.866 32.9347 213.866 32.412C213.866 31.8147 214.071 31.2547 214.482 30.732C214.874 30.228 215.406 29.7427 216.078 29.276C216.75 28.8093 217.487 28.3333 218.29 27.848C219.111 27.3813 219.923 26.8773 220.726 26.336C220.726 25.664 220.586 25.048 220.306 24.488C220.026 23.928 219.522 23.3587 218.794 22.78C219.447 22.5933 219.998 22.2667 220.446 21.8C220.912 21.3333 221.258 20.82 221.482 20.26C221.724 19.6813 221.846 19.1493 221.846 18.664C221.846 18.2347 221.752 17.88 221.566 17.6C221.398 17.32 221.127 17.18 220.754 17.18C220.138 17.18 219.587 17.4133 219.102 17.88C218.616 18.3467 218.168 18.9627 217.758 19.728C217.347 20.4933 216.927 21.3333 216.498 22.248L216.162 21.968C216.572 20.848 216.992 19.8493 217.422 18.972C217.87 18.0947 218.392 17.404 218.99 16.9C219.587 16.3773 220.306 16.116 221.146 16.116C221.78 16.116 222.322 16.3213 222.77 16.732C223.236 17.1427 223.47 17.7027 223.47 18.412C223.47 19.084 223.311 19.7093 222.994 20.288C222.676 20.8667 222.266 21.38 221.762 21.828C221.258 22.2573 220.726 22.612 220.166 22.892C220.651 23.2653 221.052 23.6667 221.37 24.096C221.706 24.5067 221.958 24.9453 222.126 25.412C222.835 24.8707 223.46 24.2827 224.002 23.648C224.562 22.9947 224.972 22.2667 225.234 21.464L225.542 21.8C225.28 22.64 224.86 23.4053 224.282 24.096C223.703 24.768 223.04 25.384 222.294 25.944C222.331 26.0747 222.359 26.224 222.378 26.392C222.396 26.56 222.406 26.7187 222.406 26.868C222.406 27.708 222.219 28.5387 221.846 29.36C221.472 30.2 220.968 30.956 220.334 31.628C219.699 32.3 218.98 32.832 218.178 33.224C217.394 33.6347 216.572 33.84 215.714 33.84ZM215.518 33.028C215.854 33.028 216.292 32.888 216.834 32.608C217.375 32.3467 217.926 31.9547 218.486 31.432C219.046 30.928 219.531 30.3027 219.942 29.556C220.352 28.8093 220.604 27.9507 220.698 26.98C219.951 27.4467 219.214 27.8853 218.486 28.296C217.776 28.7253 217.132 29.136 216.554 29.528C215.975 29.9387 215.518 30.3493 215.182 30.76C214.827 31.1893 214.65 31.6373 214.65 32.104C214.65 32.4213 214.734 32.6547 214.902 32.804C215.07 32.9533 215.275 33.028 215.518 33.028ZM224.88 33.84C224.302 33.84 223.854 33.728 223.536 33.504C223.2 33.2987 223.032 32.9347 223.032 32.412C223.032 31.8147 223.238 31.2547 223.648 30.732C224.04 30.228 224.572 29.7427 225.244 29.276C225.916 28.8093 226.654 28.3333 227.456 27.848C228.278 27.3813 229.09 26.8773 229.892 26.336C229.892 25.664 229.752 25.048 229.472 24.488C229.192 23.928 228.688 23.3587 227.96 22.78C228.614 22.5933 229.164 22.2667 229.612 21.8C230.079 21.3333 230.424 20.82 230.648 20.26C230.891 19.6813 231.012 19.1493 231.012 18.664C231.012 18.2347 230.919 17.88 230.732 17.6C230.564 17.32 230.294 17.18 229.92 17.18C229.304 17.18 228.754 17.4133 228.268 17.88C227.783 18.3467 227.335 18.9627 226.924 19.728C226.514 20.4933 226.094 21.3333 225.664 22.248L225.328 21.968C225.739 20.848 226.159 19.8493 226.588 18.972C227.036 18.0947 227.559 17.404 228.156 16.9C228.754 16.3773 229.472 16.116 230.312 16.116C230.947 16.116 231.488 16.3213 231.936 16.732C232.403 17.1427 232.636 17.7027 232.636 18.412C232.636 19.084 232.478 19.7093 232.16 20.288C231.843 20.8667 231.432 21.38 230.928 21.828C230.424 22.2573 229.892 22.612 229.332 22.892C229.818 23.2653 230.219 23.6667 230.536 24.096C230.872 24.5067 231.124 24.9453 231.292 25.412C232.002 24.8707 232.627 24.2827 233.168 23.648C233.728 22.9947 234.139 22.2667 234.4 21.464L234.708 21.8C234.447 22.64 234.027 23.4053 233.448 24.096C232.87 24.768 232.207 25.384 231.46 25.944C231.498 26.0747 231.526 26.224 231.544 26.392C231.563 26.56 231.572 26.7187 231.572 26.868C231.572 27.708 231.386 28.5387 231.012 29.36C230.639 30.2 230.135 30.956 229.5 31.628C228.866 32.3 228.147 32.832 227.344 33.224C226.56 33.6347 225.739 33.84 224.88 33.84ZM224.684 33.028C225.02 33.028 225.459 32.888 226 32.608C226.542 32.3467 227.092 31.9547 227.652 31.432C228.212 30.928 228.698 30.3027 229.108 29.556C229.519 28.8093 229.771 27.9507 229.864 26.98C229.118 27.4467 228.38 27.8853 227.652 28.296C226.943 28.7253 226.299 29.136 225.72 29.528C225.142 29.9387 224.684 30.3493 224.348 30.76C223.994 31.1893 223.816 31.6373 223.816 32.104C223.816 32.4213 223.9 32.6547 224.068 32.804C224.236 32.9533 224.442 33.028 224.684 33.028Z"/>
<path d="M16.864 40V31.096H18.736V40H16.864ZM28.8854 40.096C28.1974 40.096 27.5854 39.952 27.0494 39.664C26.5214 39.376 26.1014 38.984 25.7894 38.488C25.4854 37.984 25.3334 37.412 25.3334 36.772C25.3334 36.124 25.4854 35.552 25.7894 35.056C26.1014 34.552 26.5214 34.16 27.0494 33.88C27.5854 33.592 28.1974 33.448 28.8854 33.448C29.5654 33.448 30.1734 33.592 30.7094 33.88C31.2454 34.16 31.6654 34.548 31.9694 35.044C32.2734 35.54 32.4254 36.116 32.4254 36.772C32.4254 37.412 32.2734 37.984 31.9694 38.488C31.6654 38.984 31.2454 39.376 30.7094 39.664C30.1734 39.952 29.5654 40.096 28.8854 40.096ZM28.8854 38.56C29.1974 38.56 29.4774 38.488 29.7254 38.344C29.9734 38.2 30.1694 37.996 30.3134 37.732C30.4574 37.46 30.5294 37.14 30.5294 36.772C30.5294 36.396 30.4574 36.076 30.3134 35.812C30.1694 35.548 29.9734 35.344 29.7254 35.2C29.4774 35.056 29.1974 34.984 28.8854 34.984C28.5734 34.984 28.2934 35.056 28.0454 35.2C27.7974 35.344 27.5974 35.548 27.4454 35.812C27.3014 36.076 27.2294 36.396 27.2294 36.772C27.2294 37.14 27.3014 37.46 27.4454 37.732C27.5974 37.996 27.7974 38.2 28.0454 38.344C28.2934 38.488 28.5734 38.56 28.8854 38.56ZM40.5929 40L37.8809 33.544H39.8129L42.0689 39.1H41.1089L43.4489 33.544H45.2489L42.5249 40H40.5929ZM54.381 40.096C53.645 40.096 52.997 39.952 52.437 39.664C51.885 39.376 51.457 38.984 51.153 38.488C50.849 37.984 50.697 37.412 50.697 36.772C50.697 36.124 50.845 35.552 51.141 35.056C51.445 34.552 51.857 34.16 52.377 33.88C52.897 33.592 53.485 33.448 54.141 33.448C54.773 33.448 55.341 33.584 55.845 33.856C56.357 34.12 56.761 34.504 57.057 35.008C57.353 35.504 57.501 36.1 57.501 36.796C57.501 36.868 57.497 36.952 57.489 37.048C57.481 37.136 57.473 37.22 57.465 37.3H52.221V36.208H56.481L55.761 36.532C55.761 36.196 55.693 35.904 55.557 35.656C55.421 35.408 55.233 35.216 54.993 35.08C54.753 34.936 54.473 34.864 54.153 34.864C53.833 34.864 53.549 34.936 53.301 35.08C53.061 35.216 52.873 35.412 52.737 35.668C52.601 35.916 52.533 36.212 52.533 36.556V36.844C52.533 37.196 52.609 37.508 52.761 37.78C52.921 38.044 53.141 38.248 53.421 38.392C53.709 38.528 54.045 38.596 54.429 38.596C54.773 38.596 55.073 38.544 55.329 38.44C55.593 38.336 55.833 38.18 56.049 37.972L57.045 39.052C56.749 39.388 56.377 39.648 55.929 39.832C55.481 40.008 54.965 40.096 54.381 40.096ZM63.7867 35.08L64.5787 32.2L64.8427 33.292C64.4987 33.292 64.2147 33.192 63.9907 32.992C63.7747 32.784 63.6667 32.504 63.6667 32.152C63.6667 31.808 63.7787 31.532 64.0027 31.324C64.2267 31.108 64.5027 31 64.8307 31C65.1667 31 65.4427 31.108 65.6587 31.324C65.8747 31.532 65.9827 31.808 65.9827 32.152C65.9827 32.256 65.9747 32.36 65.9587 32.464C65.9507 32.56 65.9227 32.676 65.8747 32.812C65.8347 32.948 65.7667 33.128 65.6707 33.352L64.9747 35.08H63.7867ZM74.5524 40.096C74.0004 40.096 73.4684 40.032 72.9564 39.904C72.4524 39.768 72.0524 39.6 71.7564 39.4L72.3804 38.056C72.6764 38.24 73.0244 38.392 73.4244 38.512C73.8324 38.624 74.2324 38.68 74.6244 38.68C75.0564 38.68 75.3604 38.628 75.5364 38.524C75.7204 38.42 75.8124 38.276 75.8124 38.092C75.8124 37.94 75.7404 37.828 75.5964 37.756C75.4604 37.676 75.2764 37.616 75.0444 37.576C74.8124 37.536 74.5564 37.496 74.2764 37.456C74.0044 37.416 73.7284 37.364 73.4484 37.3C73.1684 37.228 72.9124 37.124 72.6804 36.988C72.4484 36.852 72.2604 36.668 72.1164 36.436C71.9804 36.204 71.9124 35.904 71.9124 35.536C71.9124 35.128 72.0284 34.768 72.2604 34.456C72.5004 34.144 72.8444 33.9 73.2924 33.724C73.7404 33.54 74.2764 33.448 74.9004 33.448C75.3404 33.448 75.7884 33.496 76.2444 33.592C76.7004 33.688 77.0804 33.828 77.3844 34.012L76.7604 35.344C76.4484 35.16 76.1324 35.036 75.8124 34.972C75.5004 34.9 75.1964 34.864 74.9004 34.864C74.4844 34.864 74.1804 34.92 73.9884 35.032C73.7964 35.144 73.7004 35.288 73.7004 35.464C73.7004 35.624 73.7684 35.744 73.9044 35.824C74.0484 35.904 74.2364 35.968 74.4684 36.016C74.7004 36.064 74.9524 36.108 75.2244 36.148C75.5044 36.18 75.7844 36.232 76.0644 36.304C76.3444 36.376 76.5964 36.48 76.8204 36.616C77.0524 36.744 77.2404 36.924 77.3844 37.156C77.5284 37.38 77.6004 37.676 77.6004 38.044C77.6004 38.444 77.4804 38.8 77.2404 39.112C77.0004 39.416 76.6524 39.656 76.1964 39.832C75.7484 40.008 75.2004 40.096 74.5524 40.096ZM95.9538 40.096C95.2578 40.096 94.6378 39.956 94.0938 39.676C93.5498 39.388 93.1218 38.992 92.8098 38.488C92.5058 37.984 92.3538 37.412 92.3538 36.772C92.3538 36.124 92.5058 35.552 92.8098 35.056C93.1218 34.552 93.5498 34.16 94.0938 33.88C94.6378 33.592 95.2578 33.448 95.9538 33.448C96.6338 33.448 97.2258 33.592 97.7298 33.88C98.2338 34.16 98.6058 34.564 98.8458 35.092L97.3938 35.872C97.2258 35.568 97.0138 35.344 96.7578 35.2C96.5098 35.056 96.2378 34.984 95.9418 34.984C95.6218 34.984 95.3338 35.056 95.0778 35.2C94.8218 35.344 94.6178 35.548 94.4658 35.812C94.3218 36.076 94.2498 36.396 94.2498 36.772C94.2498 37.148 94.3218 37.468 94.4658 37.732C94.6178 37.996 94.8218 38.2 95.0778 38.344C95.3338 38.488 95.6218 38.56 95.9418 38.56C96.2378 38.56 96.5098 38.492 96.7578 38.356C97.0138 38.212 97.2258 37.984 97.3938 37.672L98.8458 38.464C98.6058 38.984 98.2338 39.388 97.7298 39.676C97.2258 39.956 96.6338 40.096 95.9538 40.096ZM105.264 40V33.544H107.052V35.368L106.8 34.84C106.992 34.384 107.3 34.04 107.724 33.808C108.148 33.568 108.664 33.448 109.272 33.448V35.176C109.192 35.168 109.12 35.164 109.056 35.164C108.992 35.156 108.924 35.152 108.852 35.152C108.34 35.152 107.924 35.3 107.604 35.596C107.292 35.884 107.136 36.336 107.136 36.952V40H105.264ZM118.882 40.096C118.146 40.096 117.498 39.952 116.938 39.664C116.386 39.376 115.958 38.984 115.654 38.488C115.35 37.984 115.198 37.412 115.198 36.772C115.198 36.124 115.346 35.552 115.642 35.056C115.946 34.552 116.358 34.16 116.878 33.88C117.398 33.592 117.986 33.448 118.642 33.448C119.274 33.448 119.842 33.584 120.346 33.856C120.858 34.12 121.262 34.504 121.558 35.008C121.854 35.504 122.002 36.1 122.002 36.796C122.002 36.868 121.998 36.952 121.99 37.048C121.982 37.136 121.974 37.22 121.966 37.3H116.722V36.208H120.982L120.262 36.532C120.262 36.196 120.194 35.904 120.058 35.656C119.922 35.408 119.734 35.216 119.494 35.08C119.254 34.936 118.974 34.864 118.654 34.864C118.334 34.864 118.05 34.936 117.802 35.08C117.562 35.216 117.374 35.412 117.238 35.668C117.102 35.916 117.034 36.212 117.034 36.556V36.844C117.034 37.196 117.11 37.508 117.262 37.78C117.422 38.044 117.642 38.248 117.922 38.392C118.21 38.528 118.546 38.596 118.93 38.596C119.274 38.596 119.574 38.544 119.83 38.44C120.094 38.336 120.334 38.18 120.55 37.972L121.546 39.052C121.25 39.388 120.878 39.648 120.43 39.832C119.982 40.008 119.466 40.096 118.882 40.096ZM132.372 40V38.74L132.252 38.464V36.208C132.252 35.808 132.128 35.496 131.88 35.272C131.64 35.048 131.268 34.936 130.764 34.936C130.42 34.936 130.08 34.992 129.744 35.104C129.416 35.208 129.136 35.352 128.904 35.536L128.232 34.228C128.584 33.98 129.008 33.788 129.504 33.652C130 33.516 130.504 33.448 131.016 33.448C132 33.448 132.764 33.68 133.308 34.144C133.852 34.608 134.124 35.332 134.124 36.316V40H132.372ZM130.404 40.096C129.9 40.096 129.468 40.012 129.108 39.844C128.748 39.668 128.472 39.432 128.28 39.136C128.088 38.84 127.992 38.508 127.992 38.14C127.992 37.756 128.084 37.42 128.268 37.132C128.46 36.844 128.76 36.62 129.168 36.46C129.576 36.292 130.108 36.208 130.764 36.208H132.48V37.3H130.968C130.528 37.3 130.224 37.372 130.056 37.516C129.896 37.66 129.816 37.84 129.816 38.056C129.816 38.296 129.908 38.488 130.092 38.632C130.284 38.768 130.544 38.836 130.872 38.836C131.184 38.836 131.464 38.764 131.712 38.62C131.96 38.468 132.14 38.248 132.252 37.96L132.54 38.824C132.404 39.24 132.156 39.556 131.796 39.772C131.436 39.988 130.972 40.096 130.404 40.096ZM143.799 40.096C143.039 40.096 142.447 39.904 142.023 39.52C141.599 39.128 141.387 38.548 141.387 37.78V32.116H143.259V37.756C143.259 38.028 143.331 38.24 143.475 38.392C143.619 38.536 143.815 38.608 144.063 38.608C144.359 38.608 144.611 38.528 144.819 38.368L145.323 39.688C145.131 39.824 144.899 39.928 144.627 40C144.363 40.064 144.087 40.096 143.799 40.096ZM140.391 35.128V33.688H144.867V35.128H140.391ZM154.586 40.096C153.898 40.096 153.286 39.952 152.75 39.664C152.222 39.376 151.802 38.984 151.49 38.488C151.186 37.984 151.034 37.412 151.034 36.772C151.034 36.124 151.186 35.552 151.49 35.056C151.802 34.552 152.222 34.16 152.75 33.88C153.286 33.592 153.898 33.448 154.586 33.448C155.266 33.448 155.874 33.592 156.41 33.88C156.946 34.16 157.366 34.548 157.67 35.044C157.974 35.54 158.126 36.116 158.126 36.772C158.126 37.412 157.974 37.984 157.67 38.488C157.366 38.984 156.946 39.376 156.41 39.664C155.874 39.952 155.266 40.096 154.586 40.096ZM154.586 38.56C154.898 38.56 155.178 38.488 155.426 38.344C155.674 38.2 155.87 37.996 156.014 37.732C156.158 37.46 156.23 37.14 156.23 36.772C156.23 36.396 156.158 36.076 156.014 35.812C155.87 35.548 155.674 35.344 155.426 35.2C155.178 35.056 154.898 34.984 154.586 34.984C154.274 34.984 153.994 35.056 153.746 35.2C153.498 35.344 153.298 35.548 153.146 35.812C153.002 36.076 152.93 36.396 152.93 36.772C152.93 37.14 153.002 37.46 153.146 37.732C153.298 37.996 153.498 38.2 153.746 38.344C153.994 38.488 154.274 38.56 154.586 38.56ZM164.718 40V33.544H166.506V35.368L166.254 34.84C166.446 34.384 166.754 34.04 167.178 33.808C167.602 33.568 168.118 33.448 168.726 33.448V35.176C168.646 35.168 168.574 35.164 168.51 35.164C168.446 35.156 168.378 35.152 168.306 35.152C167.794 35.152 167.378 35.3 167.058 35.596C166.746 35.884 166.59 36.336 166.59 36.952V40H164.718ZM177.398 40.096C176.846 40.096 176.314 40.032 175.802 39.904C175.298 39.768 174.898 39.6 174.602 39.4L175.226 38.056C175.522 38.24 175.87 38.392 176.27 38.512C176.678 38.624 177.078 38.68 177.47 38.68C177.902 38.68 178.206 38.628 178.382 38.524C178.566 38.42 178.658 38.276 178.658 38.092C178.658 37.94 178.586 37.828 178.442 37.756C178.306 37.676 178.122 37.616 177.89 37.576C177.658 37.536 177.402 37.496 177.122 37.456C176.85 37.416 176.574 37.364 176.294 37.3C176.014 37.228 175.758 37.124 175.526 36.988C175.294 36.852 175.106 36.668 174.962 36.436C174.826 36.204 174.758 35.904 174.758 35.536C174.758 35.128 174.874 34.768 175.106 34.456C175.346 34.144 175.69 33.9 176.138 33.724C176.586 33.54 177.122 33.448 177.746 33.448C178.186 33.448 178.634 33.496 179.09 33.592C179.546 33.688 179.926 33.828 180.23 34.012L179.606 35.344C179.294 35.16 178.978 35.036 178.658 34.972C178.346 34.9 178.042 34.864 177.746 34.864C177.33 34.864 177.026 34.92 176.834 35.032C176.642 35.144 176.546 35.288 176.546 35.464C176.546 35.624 176.614 35.744 176.75 35.824C176.894 35.904 177.082 35.968 177.314 36.016C177.546 36.064 177.798 36.108 178.07 36.148C178.35 36.18 178.63 36.232 178.91 36.304C179.19 36.376 179.442 36.48 179.666 36.616C179.898 36.744 180.086 36.924 180.23 37.156C180.374 37.38 180.446 37.676 180.446 38.044C180.446 38.444 180.326 38.8 180.086 39.112C179.846 39.416 179.498 39.656 179.042 39.832C178.594 40.008 178.046 40.096 177.398 40.096Z"/>
</svg>
